<mxfile host="Electron" agent="Mozilla/5.0 (Windows NT 10.0; Win64; x64) AppleWebKit/537.36 (KHTML, like Gecko) draw.io/28.0.4 Chrome/138.0.7204.97 Electron/37.2.1 Safari/537.36" version="28.0.4">
  <diagram name="Page-1" id="K9yOpykMRkYnQiZrQhzf">
    <mxGraphModel dx="1631" dy="660" grid="0" gridSize="10" guides="1" tooltips="1" connect="1" arrows="1" fold="1" page="0" pageScale="1" pageWidth="850" pageHeight="1100" math="0" shadow="0">
      <root>
        <mxCell id="0" />
        <mxCell id="1" parent="0" />
        <mxCell id="bGrMoKaCO9mES7Q6xUBA-1" value="&lt;p style=&quot;margin:0px;margin-top:4px;text-align:center;&quot;&gt;&lt;b&gt;Movie&lt;/b&gt;&lt;/p&gt;&lt;hr size=&quot;1&quot; style=&quot;border-style:solid;&quot;&gt;&lt;p style=&quot;margin:0px;margin-left:4px;&quot;&gt;+ movieID: INT&lt;/p&gt;&lt;p style=&quot;margin:0px;margin-left:4px;&quot;&gt;+ name: string&lt;/p&gt;&lt;p style=&quot;margin:0px;margin-left:4px;&quot;&gt;+ genre: string&lt;/p&gt;&lt;hr size=&quot;1&quot; style=&quot;border-style:solid;&quot;&gt;&lt;p style=&quot;margin:0px;margin-left:4px;&quot;&gt;+ method(): Type&lt;/p&gt;" style="verticalAlign=top;align=left;overflow=fill;html=1;whiteSpace=wrap;" parent="1" vertex="1">
          <mxGeometry x="-80" y="160" width="110" height="110" as="geometry" />
        </mxCell>
        <mxCell id="bGrMoKaCO9mES7Q6xUBA-2" value="&lt;p style=&quot;margin:0px;margin-top:4px;text-align:center;&quot;&gt;&lt;b&gt;MovieController&lt;/b&gt;&lt;/p&gt;&lt;hr size=&quot;1&quot; style=&quot;border-style:solid;&quot;&gt;&lt;p style=&quot;margin:0px;margin-left:4px;&quot;&gt;+ cityMap: map&amp;lt;City,List&amp;lt;Movie&amp;gt;&amp;gt;&lt;/p&gt;&lt;p style=&quot;margin:0px;margin-left:4px;&quot;&gt;+ AllMovies: List&amp;lt;Movie&amp;gt;&lt;/p&gt;&lt;hr size=&quot;1&quot; style=&quot;border-style:solid;&quot;&gt;&lt;p style=&quot;margin:0px;margin-left:4px;&quot;&gt;+ method(): Type&lt;/p&gt;" style="verticalAlign=top;align=left;overflow=fill;html=1;whiteSpace=wrap;" parent="1" vertex="1">
          <mxGeometry x="110" y="160" width="200" height="90" as="geometry" />
        </mxCell>
        <mxCell id="bGrMoKaCO9mES7Q6xUBA-3" value="&lt;p style=&quot;margin:0px;margin-top:4px;text-align:center;&quot;&gt;&lt;b&gt;City&lt;/b&gt;&lt;/p&gt;&lt;hr size=&quot;1&quot; style=&quot;border-style:solid;&quot;&gt;&lt;p style=&quot;margin:0px;margin-left:4px;&quot;&gt;+ cityId: INT&lt;/p&gt;&lt;p style=&quot;margin:0px;margin-left:4px;&quot;&gt;+ name: string&lt;/p&gt;&lt;hr size=&quot;1&quot; style=&quot;border-style:solid;&quot;&gt;&lt;p style=&quot;margin:0px;margin-left:4px;&quot;&gt;+ method(): Type&lt;/p&gt;" style="verticalAlign=top;align=left;overflow=fill;html=1;whiteSpace=wrap;" parent="1" vertex="1">
          <mxGeometry x="420" y="190" width="110" height="90" as="geometry" />
        </mxCell>
        <mxCell id="bGrMoKaCO9mES7Q6xUBA-4" value="&lt;p style=&quot;margin:0px;margin-top:4px;text-align:center;&quot;&gt;&lt;b&gt;User&lt;/b&gt;&lt;/p&gt;&lt;hr size=&quot;1&quot; style=&quot;border-style:solid;&quot;&gt;&lt;p style=&quot;margin:0px;margin-left:4px;&quot;&gt;+ userID: INT&lt;/p&gt;&lt;p style=&quot;margin:0px;margin-left:4px;&quot;&gt;+ userCity: City&lt;/p&gt;&lt;p style=&quot;margin:0px;margin-left:4px;&quot;&gt;+ userName: string&lt;/p&gt;&lt;hr size=&quot;1&quot; style=&quot;border-style:solid;&quot;&gt;&lt;p style=&quot;margin:0px;margin-left:4px;&quot;&gt;+ method(): Type&lt;/p&gt;" style="verticalAlign=top;align=left;overflow=fill;html=1;whiteSpace=wrap;" parent="1" vertex="1">
          <mxGeometry x="90" y="280" width="110" height="110" as="geometry" />
        </mxCell>
        <mxCell id="bGrMoKaCO9mES7Q6xUBA-5" value="Use" style="endArrow=open;endSize=12;dashed=1;html=1;rounded=0;entryX=0.991;entryY=0.427;entryDx=0;entryDy=0;entryPerimeter=0;" parent="1" target="bGrMoKaCO9mES7Q6xUBA-1" edge="1">
          <mxGeometry width="160" relative="1" as="geometry">
            <mxPoint x="109" y="207" as="sourcePoint" />
            <mxPoint x="540" y="460" as="targetPoint" />
          </mxGeometry>
        </mxCell>
        <mxCell id="bGrMoKaCO9mES7Q6xUBA-6" value="Use" style="endArrow=open;endSize=12;dashed=1;html=1;rounded=0;exitX=0.75;exitY=0;exitDx=0;exitDy=0;entryX=0.5;entryY=0;entryDx=0;entryDy=0;" parent="1" source="bGrMoKaCO9mES7Q6xUBA-2" target="bGrMoKaCO9mES7Q6xUBA-3" edge="1">
          <mxGeometry width="160" relative="1" as="geometry">
            <mxPoint x="380" y="500" as="sourcePoint" />
            <mxPoint x="540" y="500" as="targetPoint" />
            <Array as="points">
              <mxPoint x="260" y="120" />
              <mxPoint x="480" y="120" />
            </Array>
          </mxGeometry>
        </mxCell>
        <mxCell id="bGrMoKaCO9mES7Q6xUBA-7" value="Use" style="endArrow=open;endSize=12;dashed=1;html=1;rounded=0;exitX=1;exitY=0.5;exitDx=0;exitDy=0;entryX=0;entryY=0.589;entryDx=0;entryDy=0;entryPerimeter=0;" parent="1" source="bGrMoKaCO9mES7Q6xUBA-4" target="bGrMoKaCO9mES7Q6xUBA-3" edge="1">
          <mxGeometry width="160" relative="1" as="geometry">
            <mxPoint x="810" y="330" as="sourcePoint" />
            <mxPoint x="970" y="330" as="targetPoint" />
          </mxGeometry>
        </mxCell>
        <mxCell id="bGrMoKaCO9mES7Q6xUBA-8" value="&lt;p style=&quot;margin:0px;margin-top:4px;text-align:center;&quot;&gt;&lt;b&gt;Theatre&lt;/b&gt;&lt;/p&gt;&lt;hr size=&quot;1&quot; style=&quot;border-style:solid;&quot;&gt;&lt;p style=&quot;margin:0px;margin-left:4px;&quot;&gt;+ theatreID: INT&lt;/p&gt;&lt;p style=&quot;margin:0px;margin-left:4px;&quot;&gt;+ city: City&lt;/p&gt;&lt;p style=&quot;margin:0px;margin-left:4px;&quot;&gt;+ shows: List&amp;lt;Show&amp;gt;&lt;/p&gt;&lt;p style=&quot;margin:0px;margin-left:4px;&quot;&gt;+ screens: List&amp;lt;Screen&amp;gt;&lt;/p&gt;&lt;hr size=&quot;1&quot; style=&quot;border-style:solid;&quot;&gt;&lt;p style=&quot;margin:0px;margin-left:4px;&quot;&gt;+ method(): Type&lt;/p&gt;" style="verticalAlign=top;align=left;overflow=fill;html=1;whiteSpace=wrap;" parent="1" vertex="1">
          <mxGeometry x="390" y="510" width="160" height="120" as="geometry" />
        </mxCell>
        <mxCell id="bGrMoKaCO9mES7Q6xUBA-9" value="&lt;p style=&quot;margin:0px;margin-top:4px;text-align:center;&quot;&gt;&lt;b&gt;Screen&lt;/b&gt;&lt;/p&gt;&lt;hr size=&quot;1&quot; style=&quot;border-style:solid;&quot;&gt;&lt;p style=&quot;margin:0px;margin-left:4px;&quot;&gt;+ screenID: INT&lt;/p&gt;&lt;p style=&quot;margin:0px;margin-left:4px;&quot;&gt;+ seats: List&amp;lt;Seat&amp;gt;&lt;/p&gt;&lt;hr size=&quot;1&quot; style=&quot;border-style:solid;&quot;&gt;&lt;p style=&quot;margin:0px;margin-left:4px;&quot;&gt;+ method(): Type&lt;/p&gt;" style="verticalAlign=top;align=left;overflow=fill;html=1;whiteSpace=wrap;" parent="1" vertex="1">
          <mxGeometry x="615" y="520" width="115" height="90" as="geometry" />
        </mxCell>
        <mxCell id="bGrMoKaCO9mES7Q6xUBA-10" value="&lt;p style=&quot;margin:0px;margin-top:4px;text-align:center;&quot;&gt;&lt;b&gt;Show&lt;/b&gt;&lt;/p&gt;&lt;hr size=&quot;1&quot; style=&quot;border-style:solid;&quot;&gt;&lt;p style=&quot;margin:0px;margin-left:4px;&quot;&gt;+ showID: INT&lt;/p&gt;&lt;p style=&quot;margin:0px;margin-left:4px;&quot;&gt;+ movie: Movie&lt;/p&gt;&lt;p style=&quot;margin:0px;margin-left:4px;&quot;&gt;+ screen: Screen&lt;/p&gt;&lt;p style=&quot;margin:0px;margin-left:4px;&quot;&gt;+ bookedSeats: List&amp;lt;Seat&amp;gt;&lt;/p&gt;&lt;hr size=&quot;1&quot; style=&quot;border-style:solid;&quot;&gt;&lt;p style=&quot;margin:0px;margin-left:4px;&quot;&gt;+ method(): Type&lt;/p&gt;" style="verticalAlign=top;align=left;overflow=fill;html=1;whiteSpace=wrap;" parent="1" vertex="1">
          <mxGeometry x="80" y="520" width="160" height="120" as="geometry" />
        </mxCell>
        <mxCell id="bGrMoKaCO9mES7Q6xUBA-11" value="Use" style="endArrow=open;endSize=12;dashed=1;html=1;rounded=0;exitX=1;exitY=0.5;exitDx=0;exitDy=0;entryX=0;entryY=0.5;entryDx=0;entryDy=0;" parent="1" source="bGrMoKaCO9mES7Q6xUBA-8" target="bGrMoKaCO9mES7Q6xUBA-9" edge="1">
          <mxGeometry width="160" relative="1" as="geometry">
            <mxPoint x="380" y="770" as="sourcePoint" />
            <mxPoint x="540" y="770" as="targetPoint" />
          </mxGeometry>
        </mxCell>
        <mxCell id="bGrMoKaCO9mES7Q6xUBA-12" value="Use" style="endArrow=open;endSize=12;dashed=1;html=1;rounded=0;exitX=0;exitY=0.5;exitDx=0;exitDy=0;entryX=1;entryY=0.417;entryDx=0;entryDy=0;entryPerimeter=0;" parent="1" source="bGrMoKaCO9mES7Q6xUBA-8" target="bGrMoKaCO9mES7Q6xUBA-10" edge="1">
          <mxGeometry width="160" relative="1" as="geometry">
            <mxPoint x="320" y="810" as="sourcePoint" />
            <mxPoint x="480" y="810" as="targetPoint" />
          </mxGeometry>
        </mxCell>
        <mxCell id="bGrMoKaCO9mES7Q6xUBA-13" value="&lt;p style=&quot;margin:0px;margin-top:4px;text-align:center;&quot;&gt;&lt;b&gt;Seat&lt;/b&gt;&lt;/p&gt;&lt;hr size=&quot;1&quot; style=&quot;border-style:solid;&quot;&gt;&lt;p style=&quot;margin:0px;margin-left:4px;&quot;&gt;+ seatID: INT&lt;/p&gt;&lt;p style=&quot;margin:0px;margin-left:4px;&quot;&gt;+ row: INT&lt;/p&gt;&lt;hr size=&quot;1&quot; style=&quot;border-style:solid;&quot;&gt;&lt;p style=&quot;margin:0px;margin-left:4px;&quot;&gt;+ method(): Type&lt;/p&gt;" style="verticalAlign=top;align=left;overflow=fill;html=1;whiteSpace=wrap;" parent="1" vertex="1">
          <mxGeometry x="415" y="670" width="110" height="90" as="geometry" />
        </mxCell>
        <mxCell id="bGrMoKaCO9mES7Q6xUBA-15" value="Use" style="endArrow=open;endSize=12;dashed=1;html=1;rounded=0;exitX=0.565;exitY=1.011;exitDx=0;exitDy=0;entryX=1;entryY=0.5;entryDx=0;entryDy=0;exitPerimeter=0;" parent="1" source="bGrMoKaCO9mES7Q6xUBA-9" target="bGrMoKaCO9mES7Q6xUBA-13" edge="1">
          <mxGeometry width="160" relative="1" as="geometry">
            <mxPoint x="450" y="940" as="sourcePoint" />
            <mxPoint x="610" y="940" as="targetPoint" />
            <Array as="points">
              <mxPoint x="680" y="715" />
            </Array>
          </mxGeometry>
        </mxCell>
        <mxCell id="bGrMoKaCO9mES7Q6xUBA-16" value="Use" style="endArrow=open;endSize=12;dashed=1;html=1;rounded=0;exitX=0.75;exitY=1;exitDx=0;exitDy=0;entryX=0;entryY=0.5;entryDx=0;entryDy=0;" parent="1" source="bGrMoKaCO9mES7Q6xUBA-10" target="bGrMoKaCO9mES7Q6xUBA-13" edge="1">
          <mxGeometry width="160" relative="1" as="geometry">
            <mxPoint x="390" y="960" as="sourcePoint" />
            <mxPoint x="550" y="960" as="targetPoint" />
            <Array as="points">
              <mxPoint x="200" y="715" />
            </Array>
          </mxGeometry>
        </mxCell>
        <mxCell id="bGrMoKaCO9mES7Q6xUBA-17" value="Use" style="endArrow=open;endSize=12;dashed=1;html=1;rounded=0;exitX=0;exitY=0.5;exitDx=0;exitDy=0;entryX=0.364;entryY=0.991;entryDx=0;entryDy=0;entryPerimeter=0;" parent="1" source="bGrMoKaCO9mES7Q6xUBA-10" target="bGrMoKaCO9mES7Q6xUBA-1" edge="1">
          <mxGeometry width="160" relative="1" as="geometry">
            <mxPoint x="-40" y="830" as="sourcePoint" />
            <mxPoint x="120" y="830" as="targetPoint" />
            <Array as="points">
              <mxPoint x="-40" y="580" />
              <mxPoint x="-40" y="395" />
            </Array>
          </mxGeometry>
        </mxCell>
        <mxCell id="bGrMoKaCO9mES7Q6xUBA-18" value="&lt;p style=&quot;margin:0px;margin-top:4px;text-align:center;&quot;&gt;&lt;b&gt;TheatreController&lt;/b&gt;&lt;/p&gt;&lt;hr size=&quot;1&quot; style=&quot;border-style:solid;&quot;&gt;&lt;p style=&quot;margin:0px;margin-left:4px;&quot;&gt;+ cityTheatreMap: map&amp;lt;City,List&amp;lt;Theatre&amp;gt;&amp;gt;&lt;/p&gt;&lt;p style=&quot;margin:0px;margin-left:4px;&quot;&gt;+ AllTheatres: List&amp;lt;Theatre&amp;gt;&lt;/p&gt;&lt;hr size=&quot;1&quot; style=&quot;border-style:solid;&quot;&gt;&lt;p style=&quot;margin:0px;margin-left:4px;&quot;&gt;+ method(): Type&lt;/p&gt;" style="verticalAlign=top;align=left;overflow=fill;html=1;whiteSpace=wrap;" parent="1" vertex="1">
          <mxGeometry x="350" y="350" width="240" height="90" as="geometry" />
        </mxCell>
        <mxCell id="bGrMoKaCO9mES7Q6xUBA-19" value="Use" style="endArrow=open;endSize=12;dashed=1;html=1;rounded=0;exitX=0.5;exitY=1;exitDx=0;exitDy=0;entryX=0.5;entryY=0;entryDx=0;entryDy=0;" parent="1" source="bGrMoKaCO9mES7Q6xUBA-18" target="bGrMoKaCO9mES7Q6xUBA-8" edge="1">
          <mxGeometry width="160" relative="1" as="geometry">
            <mxPoint x="450" y="550" as="sourcePoint" />
            <mxPoint x="610" y="550" as="targetPoint" />
          </mxGeometry>
        </mxCell>
        <mxCell id="bGrMoKaCO9mES7Q6xUBA-20" value="Use" style="endArrow=open;endSize=12;dashed=1;html=1;rounded=0;exitX=0.533;exitY=0.044;exitDx=0;exitDy=0;entryX=0.5;entryY=1;entryDx=0;entryDy=0;exitPerimeter=0;" parent="1" source="bGrMoKaCO9mES7Q6xUBA-18" target="bGrMoKaCO9mES7Q6xUBA-3" edge="1">
          <mxGeometry width="160" relative="1" as="geometry">
            <mxPoint x="520" y="520" as="sourcePoint" />
            <mxPoint x="680" y="520" as="targetPoint" />
            <Array as="points" />
          </mxGeometry>
        </mxCell>
        <mxCell id="bGrMoKaCO9mES7Q6xUBA-21" value="&lt;p style=&quot;margin:0px;margin-top:4px;text-align:center;&quot;&gt;&lt;b&gt;Booking&lt;/b&gt;&lt;/p&gt;&lt;hr size=&quot;1&quot; style=&quot;border-style:solid;&quot;&gt;&lt;p style=&quot;margin:0px;margin-left:4px;&quot;&gt;+ bookingID: INT&lt;/p&gt;&lt;p style=&quot;margin:0px;margin-left:4px;&quot;&gt;+ show: Show&lt;/p&gt;&lt;p style=&quot;margin:0px;margin-left:4px;&quot;&gt;+ seatsBooked: List&amp;lt;Seat&amp;gt;&lt;/p&gt;&lt;p style=&quot;margin:0px;margin-left:4px;&quot;&gt;+ payment: Payment&lt;/p&gt;&lt;hr size=&quot;1&quot; style=&quot;border-style:solid;&quot;&gt;&lt;p style=&quot;margin:0px;margin-left:4px;&quot;&gt;+ method(): Type&lt;/p&gt;" style="verticalAlign=top;align=left;overflow=fill;html=1;whiteSpace=wrap;" parent="1" vertex="1">
          <mxGeometry x="200" y="800" width="160" height="120" as="geometry" />
        </mxCell>
        <mxCell id="bGrMoKaCO9mES7Q6xUBA-22" value="Use" style="endArrow=open;endSize=12;dashed=1;html=1;rounded=0;entryX=0.438;entryY=1.042;entryDx=0;entryDy=0;entryPerimeter=0;exitX=0;exitY=0.5;exitDx=0;exitDy=0;" parent="1" source="bGrMoKaCO9mES7Q6xUBA-21" target="bGrMoKaCO9mES7Q6xUBA-10" edge="1">
          <mxGeometry width="160" relative="1" as="geometry">
            <mxPoint x="490" y="1070" as="sourcePoint" />
            <mxPoint x="650" y="1070" as="targetPoint" />
            <Array as="points">
              <mxPoint x="150" y="860" />
            </Array>
          </mxGeometry>
        </mxCell>
        <mxCell id="bGrMoKaCO9mES7Q6xUBA-23" value="Use" style="endArrow=open;endSize=12;dashed=1;html=1;rounded=0;entryX=0.5;entryY=1;entryDx=0;entryDy=0;exitX=1.006;exitY=0.409;exitDx=0;exitDy=0;exitPerimeter=0;" parent="1" source="bGrMoKaCO9mES7Q6xUBA-21" target="bGrMoKaCO9mES7Q6xUBA-13" edge="1">
          <mxGeometry width="160" relative="1" as="geometry">
            <mxPoint x="590" y="1090" as="sourcePoint" />
            <mxPoint x="750" y="1090" as="targetPoint" />
            <Array as="points">
              <mxPoint x="470" y="849" />
            </Array>
          </mxGeometry>
        </mxCell>
        <mxCell id="bGrMoKaCO9mES7Q6xUBA-24" value="&lt;p style=&quot;margin:0px;margin-top:4px;text-align:center;&quot;&gt;&lt;b&gt;Payment&lt;/b&gt;&lt;/p&gt;&lt;hr size=&quot;1&quot; style=&quot;border-style:solid;&quot;&gt;&lt;p style=&quot;margin:0px;margin-left:4px;&quot;&gt;+ paymentID: INT&lt;/p&gt;&lt;p style=&quot;margin:0px;margin-left:4px;&quot;&gt;+ amount: Double&lt;/p&gt;&lt;p style=&quot;margin:0px;margin-left:4px;&quot;&gt;+ mode: Enum Mode&lt;/p&gt;&lt;p style=&quot;margin:0px;margin-left:4px;&quot;&gt;+ status: Enum Status&lt;/p&gt;&lt;hr size=&quot;1&quot; style=&quot;border-style:solid;&quot;&gt;&lt;p style=&quot;margin:0px;margin-left:4px;&quot;&gt;+ method(): Type&lt;/p&gt;" style="verticalAlign=top;align=left;overflow=fill;html=1;whiteSpace=wrap;" parent="1" vertex="1">
          <mxGeometry x="200" y="970" width="160" height="120" as="geometry" />
        </mxCell>
        <mxCell id="bGrMoKaCO9mES7Q6xUBA-25" value="Use" style="endArrow=open;endSize=12;dashed=1;html=1;rounded=0;exitX=0.5;exitY=1;exitDx=0;exitDy=0;entryX=0.5;entryY=0;entryDx=0;entryDy=0;" parent="1" source="bGrMoKaCO9mES7Q6xUBA-21" target="bGrMoKaCO9mES7Q6xUBA-24" edge="1">
          <mxGeometry width="160" relative="1" as="geometry">
            <mxPoint x="610" y="1250" as="sourcePoint" />
            <mxPoint x="770" y="1250" as="targetPoint" />
          </mxGeometry>
        </mxCell>
        <mxCell id="bGrMoKaCO9mES7Q6xUBA-26" value="&lt;p style=&quot;margin:0px;margin-top:4px;text-align:center;&quot;&gt;&lt;b&gt;BookMyShow&lt;/b&gt;&lt;/p&gt;&lt;hr size=&quot;1&quot; style=&quot;border-style:solid;&quot;&gt;&lt;p style=&quot;margin:0px;margin-left:4px;&quot;&gt;+ movieControllerObj&lt;/p&gt;&lt;p style=&quot;margin:0px;margin-left:4px;&quot;&gt;+ theatreControllerObj&lt;/p&gt;&lt;hr size=&quot;1&quot; style=&quot;border-style:solid;&quot;&gt;&lt;p style=&quot;margin:0px;margin-left:4px;&quot;&gt;+ method(): Type&lt;/p&gt;" style="verticalAlign=top;align=left;overflow=fill;html=1;whiteSpace=wrap;" parent="1" vertex="1">
          <mxGeometry x="730" y="200" width="160" height="90" as="geometry" />
        </mxCell>
        <mxCell id="bGrMoKaCO9mES7Q6xUBA-27" value="Use" style="endArrow=open;endSize=12;dashed=1;html=1;rounded=0;exitX=0.5;exitY=1;exitDx=0;exitDy=0;entryX=1;entryY=0.5;entryDx=0;entryDy=0;" parent="1" source="bGrMoKaCO9mES7Q6xUBA-26" target="bGrMoKaCO9mES7Q6xUBA-18" edge="1">
          <mxGeometry width="160" relative="1" as="geometry">
            <mxPoint x="810" y="510" as="sourcePoint" />
            <mxPoint x="970" y="510" as="targetPoint" />
            <Array as="points">
              <mxPoint x="810" y="395" />
            </Array>
          </mxGeometry>
        </mxCell>
        <mxCell id="bGrMoKaCO9mES7Q6xUBA-28" value="Use" style="endArrow=open;endSize=12;dashed=1;html=1;rounded=0;exitX=0.5;exitY=0;exitDx=0;exitDy=0;entryX=0.25;entryY=0;entryDx=0;entryDy=0;" parent="1" source="bGrMoKaCO9mES7Q6xUBA-26" target="bGrMoKaCO9mES7Q6xUBA-2" edge="1">
          <mxGeometry width="160" relative="1" as="geometry">
            <mxPoint x="540" y="110" as="sourcePoint" />
            <mxPoint x="700" y="110" as="targetPoint" />
            <Array as="points">
              <mxPoint x="810" y="40" />
              <mxPoint x="160" y="40" />
            </Array>
          </mxGeometry>
        </mxCell>
      </root>
    </mxGraphModel>
  </diagram>
</mxfile>
